<svg width="16" height="15" viewBox="0 0 16 15" fill="none" xmlns="http://www.w3.org/2000/svg">
<path d="M16 8C16 8.88035 15.2787 9.5989 14.3984 9.5989L1.60167 9.5989C0.765199 9.5989 0.0740796 8.94891 0.00551613 8.13164L3.05875e-05 7.99999C3.0549e-05 7.11964 0.721318 6.40109 1.60167 6.40109L14.3984 6.40109C15.2787 6.40109 16 7.11964 16 8Z" fill="#020202"/>
<path d="M11.2007 1.82928C11.2007 2.70963 10.4794 3.42818 9.59904 3.42818L1.6018 3.42818C0.721443 3.42818 0.000155567 2.70963 0.000155529 1.82928L0.000155519 1.60165C0.00015548 0.721289 0.721443 -4.58062e-07 1.6018 -4.19581e-07L9.59904 -7.001e-08C10.4794 -3.15285e-08 11.2007 0.721289 11.2007 1.60165L11.2007 1.82928ZM6.8565 13.2575C6.8565 14.1378 6.13796 14.8564 5.2576 14.8564L1.6018 14.8564C0.721444 14.8564 0.000156067 14.1378 0.000156028 13.2575C0.00015599 12.3771 0.721444 11.6558 1.6018 11.6558L5.2576 11.6558C6.13796 11.6558 6.8565 12.3771 6.8565 13.2575Z" fill="#020202"/>
</svg>
