<svg width="40" height="35" viewBox="0 0 40 35" fill="none" xmlns="http://www.w3.org/2000/svg">
<path d="M29.163 0C27.287 0.0290587 25.4519 0.550571 23.8431 1.51187C22.2342 2.47317 20.9086 3.84022 20 5.47496C19.0914 3.84022 17.7658 2.47317 16.1569 1.51187C14.5481 0.550571 12.713 0.0290587 10.837 0C7.84647 0.129393 5.02888 1.43221 2.99983 3.62382C0.970776 5.81543 -0.104807 8.71768 0.00806525 11.6965C0.00806525 19.2404 7.98152 27.4793 14.6688 33.0655C16.1619 34.315 18.0497 35 20 35C21.9503 35 23.8381 34.315 25.3312 33.0655C32.0185 27.4793 39.9919 19.2404 39.9919 11.6965C40.1048 8.71768 39.0292 5.81543 37.0002 3.62382C34.9711 1.43221 32.1535 0.129393 29.163 0Z" fill="#26A6FB"/>
</svg>
